Coordinates
version=1
nRows=11
nColumns=63
inDegrees=yes

Units are S.I. units (second, meters, Newtons, ...)
If the header above contains a line with 'inDegrees', this indicates whether rotational values are in degrees (yes) or radians (no).

endheader
time	pelvis_tilt	pelvis_list	pelvis_rotation	pelvis_tx	pelvis_ty	pelvis_tz	hip_flexion_r	hip_adduction_r	hip_rotation_r	knee_angle_r	knee_angle_r_beta	ankle_angle_r	subtalar_angle_r	mtp_angle_r	hip_flexion_l	hip_adduction_l	hip_rotation_l	knee_angle_l	knee_angle_l_beta	ankle_angle_l	subtalar_angle_l	mtp_angle_l	L5_S1_Flex_Ext	L5_S1_Lat_Bending	L5_S1_axial_rotation	L4_L5_Flex_Ext	L4_L5_Lat_Bending	L4_L5_axial_rotation	L3_L4_Flex_Ext	L3_L4_Lat_Bending	L3_L4_axial_rotation	L2_L3_Flex_Ext	L2_L3_Lat_Bending	L2_L3_axial_rotation	L1_L2_Flex_Ext	L1_L2_Lat_Bending	L1_L2_axial_rotation	L1_T12_Flex_Ext	L1_T12_Lat_Bending	L1_T12_axial_rotation	Abs_r3	Abs_r2	Abs_r1	Abs_t1	Abs_t2	neck_flexion	neck_bending	neck_rotation	arm_flex_r	arm_add_r	arm_rot_r	elbow_flex_r	pro_sup_r	wrist_flex_r	wrist_dev_r	arm_flex_l	arm_add_l	arm_rot_l	elbow_flex_l	pro_sup_l	wrist_flex_l	wrist_dev_l
      5.00000000	      3.82933580	     -8.44186069	     79.39363209	      0.21732366	      1.03047692	      0.53643164	      8.12724259	      4.42463722	     -5.25926421	      9.72766228	      0.16977974	     24.58314980	     17.08118129	      0.00000000	      9.27392487	     -7.41950574	    -27.07077189	     12.66413641	      0.22103088	     33.08893860	     14.67044855	      0.00000000	      0.03789820	      0.94732618	      1.03427573	      0.07038075	      1.25994382	      1.09891796	      0.06226296	      2.30332888	      1.09891796	      0.04331386	      2.30332888	      0.90499126	      0.03519227	      1.93178755	      0.84034903	      0.02165503	      1.46740826	      0.77570679	      0.27070307	     10.71634325	      5.75233130	      0.00000000	      0.00000000	     22.01542878	    -16.79496241	     21.49732363	     -8.30193698	    -24.04722050	     97.12044427	      9.29619574	      7.48906554	     -4.53748895	    -16.41971101	     18.85535659	    -12.36184918	     -8.81401258	    101.57458329	     78.91295527	     -8.78462694	      9.71057997
      5.01785714	      3.97687578	     -8.39081843	     79.30912140	      0.21699471	      1.03000559	      0.53547148	      7.86241127	      4.56241151	     -5.23061965	      9.34205320	      0.16304959	     24.70132234	     17.23737009	      0.00000000	      9.09708788	     -7.50861240	    -27.07982415	     12.47583256	      0.21774436	     33.67992947	     14.79748546	      0.00000000	      0.05771993	      0.92783809	      0.99790347	      0.10719168	      1.23402466	      1.06027244	      0.09482807	      2.25594553	      1.06027244	      0.06596811	      2.25594553	      0.87316554	      0.05359873	      1.89204743	      0.81079657	      0.03298117	      1.43722120	      0.74842760	      0.41228769	     10.49589002	      5.55003973	      0.00000000	      0.00000000	     24.26338444	    -18.72062115	     22.49502958	     -9.40782907	    -24.57236906	     97.03759822	      9.71082038	      7.59732841	     -4.32511914	    -14.02272838	     19.28969927	    -12.46291557	     -9.09815753	    101.78419456	     78.97049021	     -8.85998883	      9.85747276
      5.03571429	      4.07171170	     -8.23204661	     79.21420701	      0.21709467	      1.02986542	      0.53408852	      7.47532722	      4.64415519	     -5.23359463	      9.00555271	      0.15717655	     24.91764015	     17.36209102	      0.00000000	      8.76231172	     -7.53896244	    -27.16263039	     12.23503224	      0.21354160	     34.22759284	     14.94585610	      0.00000000	      0.07790825	      0.89629068	      0.91979179	      0.14468340	      1.19206660	      0.97727878	      0.12799546	      2.17924116	      0.97727878	      0.08904133	      2.17924116	      0.80481782	      0.07234560	      1.82771595	      0.74733083	      0.04451677	      1.38835426	      0.68984385	      0.55649081	     10.13901943	      5.11560602	      0.00000000	      0.00000000	     26.24146476	    -20.05383689	     23.17447247	    -10.13926248	    -25.00001287	     96.79402835	     10.10576421	      7.79822538	     -4.03307780	    -11.67304469	     19.30749856	    -12.64202291	     -9.56910325	    102.06929474	     79.01966449	     -9.12697379	     10.02807422
      5.05357143	      4.04720526	     -8.06834903	     79.18862355	      0.21743332	      1.02990290	      0.53258040	      7.10711425	      4.61014488	     -5.24870427	      8.72048995	      0.15220126	     25.15877579	     17.46402450	      0.00000000	      8.42069983	     -7.45322492	    -27.26783822	     11.96677008	      0.20885954	     34.61126395	     15.12826455	      0.00000000	      0.10652394	      0.84598683	      0.82554131	      0.19782561	      1.12516248	      0.87713764	      0.17500819	      2.05693238	      0.87713764	      0.12174621	      2.05693238	      0.72234865	      0.09891813	      1.72513634	      0.67075231	      0.06086778	      1.31043360	      0.61915598	      0.76088987	      9.56997221	      4.59141310	      0.00000000	      0.00000000	     27.09760537	    -20.74740131	     23.48278749	    -10.58360571	    -25.23418901	     96.61535132	     10.44391792	      8.40170428	     -3.93474878	     -9.45395594	     19.17980575	    -12.88278040	     -9.93554435	    102.30562125	     79.05189525	     -9.55659741	     10.25429305
      5.07142857	      3.91032599	     -7.93677436	     79.17465274	      0.21782591	      1.03002227	      0.53164351	      6.85031243	      4.47158615	     -5.24012184	      8.50012945	      0.14835525	     25.31942900	     17.51435543	      0.00000000	      8.18749727	     -7.27143122	    -27.38629386	     11.79188363	      0.20580719	     34.73949951	     15.19445172	      0.00000000	      0.11727826	      0.77877879	      0.74693253	      0.21779745	      1.03577579	      0.79361582	      0.19267645	      1.89352274	      0.79361582	      0.13403732	      1.89352274	      0.65356597	      0.10890459	      1.58808570	      0.60688268	      0.06701280	      1.20632834	      0.56019940	      0.83770687	      8.80970140	      4.15421467	      0.00000000	      0.00000000	     27.40262807	    -21.33509128	     23.14043363	    -10.70721080	    -25.26738608	     96.85825890	     10.74176267	      9.35094589	     -4.15559737	     -8.04220860	     19.15793479	    -13.14784989	    -10.17552509	    102.48643821	     79.06214738	     -9.89197937	     10.34480589
      5.08928571	      3.79408170	     -7.78723333	     79.12826452	      0.21811988	      1.03023039	      0.53094001	      6.65920307	      4.33666384	     -5.21392363	      8.46416586	      0.14772756	     25.45330338	     17.51597350	      0.00000000	      7.97132371	     -7.13229242	    -27.52601956	     11.78649230	      0.20571310	     34.68247998	     15.13764393	      0.00000000	      0.10014504	      0.71533490	      0.68524418	      0.18597936	      0.95139541	      0.72807194	      0.16452829	      1.73926526	      0.72807194	      0.11445577	      1.73926526	      0.59958866	      0.09299469	      1.45871092	      0.55676090	      0.05722288	      1.10805375	      0.51393313	      0.71532603	      8.09201140	      3.81112256	      0.00000000	      0.00000000	     27.37966412	    -21.90899737	     22.52836232	    -10.60749396	    -25.18010673	     97.28706069	     10.98276589	     10.26486714	     -4.51254548	     -7.23531834	     19.12359158	    -13.31958100	    -10.43167939	    102.73215036	     79.03646524	    -10.09297369	     10.33463480
      5.10714286	      3.91717198	     -7.85693715	     79.10338311	      0.21831497	      1.03022283	      0.53068280	      6.69170574	      4.47494289	     -5.23357372	      8.48337599	      0.14806284	     25.39375518	     17.50720955	      0.00000000	      7.94055391	     -7.28003070	    -27.56661134	     11.78433693	      0.20567548	     34.50071617	     15.10609150	      0.00000000	      0.08788838	      0.68945706	      0.67469653	      0.16321752	      0.91697789	      0.71686506	      0.14439182	      1.67634590	      0.71686506	      0.10044763	      1.67634590	      0.59035946	      0.08161315	      1.40594084	      0.54819093	      0.05021942	      1.06796899	      0.50602239	      0.62777793	      7.79927615	      3.75245967	      0.00000000	      0.00000000	     27.27878826	    -22.03462217	     22.51048229	    -10.66430660	    -25.04731826	     97.34159689	     11.10119390	     10.35082800	     -4.53340836	     -7.16275199	     19.23040286	    -13.30719504	    -10.47578910	    102.91349700	     79.02366868	    -10.09818386	     10.31112096
      5.12500000	      3.68163974	     -7.67878126	     78.75207258	      0.21874446	      1.03051550	      0.53079018	      6.63618655	      4.21760659	     -5.08156006	      8.69313989	      0.15172391	     25.41952763	     17.45997852	      0.00000000	      7.64291399	     -6.99783015	    -27.83256920	     11.73262903	      0.20477301	     33.91972990	     14.81275491	      0.00000000	      0.04653029	      0.61790675	      0.65173035	      0.08641139	      0.82181598	      0.69246350	      0.07644461	      1.50237848	      0.69246350	      0.05317946	      1.50237848	      0.57026406	      0.04320802	      1.26003545	      0.52953091	      0.02658741	      0.95713756	      0.48879776	      0.33236118	      6.98988475	      3.62472870	      0.00000000	      0.00000000	     27.00990207	    -22.94678956	     21.43729874	    -10.09091932	    -24.85482368	     98.05751627	     11.54026985	     12.02438320	     -5.81105698	     -5.11026571	     19.24792846	    -13.69002987	    -10.79592985	    103.27785282	     78.34422989	    -10.20986949	     11.12540042
      5.14285714	      3.77604965	     -7.70967100	     78.67613133	      0.21888462	      1.03043870	      0.53063633	      6.65183301	      4.31747144	     -5.11752703	      8.74733472	      0.15266979	     25.36220245	     17.43781362	      0.00000000	      7.58977805	     -7.11083498	    -27.88679324	     11.81380139	      0.20618973	     33.62219598	     14.77133615	      0.00000000	      0.03071707	      0.60074040	      0.64206801	      0.05704467	      0.79898473	      0.68219726	      0.05046507	      1.46064021	      0.68219726	      0.03510654	      1.46064021	      0.56180951	      0.02852387	      1.22502983	      0.52168026	      0.01755173	      0.93054688	      0.48155101	      0.21940896	      6.79569558	      3.57098966	      0.00000000	      0.00000000	     26.90184522	    -23.17185179	     21.49455679	    -10.16114312	    -24.74280928	     98.05031798	     11.63143101	     12.03294829	     -5.81392218	     -5.07707233	     19.29865940	    -13.74261834	    -10.91355256	    103.45545402	     78.30620768	    -10.21259665	     11.12347138
      5.16071429	      3.61388162	     -7.55273040	     78.31411020	      0.21884715	      1.03084642	      0.53051244	      6.67066858	      4.09708298	     -4.99533284	      9.07421474	      0.15837492	     25.49390582	     17.43649755	      0.00000000	      7.39480462	     -6.92792791	    -28.16565991	     11.95692985	      0.20868779	     33.22463241	     14.49329757	      0.00000000	     -0.00235719	      0.57492191	      0.59616888	     -0.00437754	      0.76464613	      0.63342943	     -0.00387263	      1.39786512	      0.63342943	     -0.00269403	      1.39786512	      0.52164777	     -0.00218889	      1.17238075	      0.48438721	     -0.00134690	      0.89055403	      0.44712666	     -0.01683718	      6.50363158	      3.31571244	      0.00000000	      0.00000000	     26.99008030	    -24.69721090	     21.77814494	     -9.96582150	    -24.76982862	     97.63405444	     11.73380098	     11.78300089	     -6.05678770	     -4.43642066	     19.01048196	    -14.20650507	    -11.43075071	    103.76831294	     77.79249122	    -10.17016581	     11.58782430
      5.17857143	      3.49754928	     -7.54075232	     78.10053706	      0.21873849	      1.03095841	      0.53036641	      6.79508958	      3.96350525	     -4.83669355	      9.28505429	      0.16205477	     25.67200225	     17.36030927	      0.00000000	      7.33131045	     -6.73523261	    -27.85599848	     11.84807771	      0.20678797	     32.89404270	     13.80344917	      0.00000000	     -0.00888809	      0.55871558	      0.60193141	     -0.01650607	      0.74309172	      0.63955212	     -0.01460224	      1.35846106	      0.63955212	     -0.01015820	      1.35846106	      0.52668998	     -0.00825348	      1.13933281	      0.48906927	     -0.00507865	      0.86545043	      0.45144856	     -0.06348672	      6.32030239	      3.34776192	      0.00000000	      0.00000000	     27.07837841	    -25.53585630	     21.96267277	    -10.40897271	    -24.71464478	     94.13406127	     11.90643701	     11.31533785	     -6.09693812	     -3.72424522	     18.98270561	    -14.52645823	    -11.47825259	    103.86986547	     75.89197130	     -9.74011347	     11.96371730
